<svg width="536" height="199" viewBox="0 0 536 199" fill="none" xmlns="http://www.w3.org/2000/svg">
<g clip-path="url(#clip0_271_555)">
<mask id="path-1-inside-1_271_555" fill="white">
<path d="M512.002 276.7C512.012 276.71 512.029 276.71 512.039 276.701L530.514 260.125C532.85 258.029 532.701 254.326 530.204 252.425L514.517 240.482C512.276 238.776 511.886 235.558 513.653 233.365L526.022 218.021C527.991 215.578 527.25 211.946 524.481 210.471L507.093 201.205C504.608 199.881 503.706 196.767 505.099 194.32L514.845 177.189C516.397 174.462 515.083 170.997 512.113 169.984L493.457 163.623C490.792 162.714 489.403 159.785 490.385 157.147L497.26 138.677C498.354 135.736 496.502 132.526 493.408 132.003L473.97 128.715C471.194 128.246 469.353 125.578 469.899 122.816L473.718 103.476C474.326 100.398 471.982 97.5275 468.845 97.5073L449.138 97.3802C446.322 97.362 444.077 95.024 444.173 92.2103L444.843 72.507C444.95 69.3711 442.175 66.913 439.075 67.3968L419.598 70.436C416.816 70.87 414.225 68.9229 413.867 66.1304L411.365 46.5781C410.967 43.4658 407.834 41.4852 404.852 42.4602L386.123 48.5838C383.447 49.4588 380.576 47.9524 379.776 45.2529L374.171 26.3531C373.279 23.3452 369.87 21.8924 367.082 23.3325L349.569 32.381C347.068 33.6733 343.993 32.6466 342.77 30.1108L334.207 12.3553C332.844 9.52917 329.246 8.64211 326.725 10.5111L310.895 22.2511C308.634 23.9281 305.434 23.4084 303.82 21.1018L292.518 4.95168C290.719 2.38151 287.025 2.08331 284.838 4.33167L271.091 18.4598C269.128 20.4774 265.887 20.4774 263.924 18.4598L250.177 4.33167C247.989 2.08331 244.296 2.3815 242.497 4.95168L231.195 21.1018C229.58 23.4084 226.381 23.9281 224.12 22.2511L208.289 10.5111C205.769 8.64211 202.17 9.52917 200.807 12.3553L192.245 30.1108C191.022 32.6466 187.947 33.6733 185.446 32.381L167.932 23.3325C165.145 21.8924 161.735 23.3452 160.844 26.3531L155.239 45.2529C154.438 47.9524 151.567 49.4588 148.891 48.5838L130.163 42.4602C127.18 41.4852 124.047 43.4658 123.649 46.5781L121.147 66.1304C120.79 68.9229 118.199 70.87 115.417 70.436L95.9396 67.3968C92.8394 66.913 90.0649 69.3712 90.1716 72.5071L90.8418 92.2012C90.9376 95.015 88.6923 97.353 85.877 97.3711L66.1691 97.4982C63.032 97.5184 60.6883 100.389 61.2961 103.467L65.1156 122.806C65.6611 125.568 63.8192 128.236 61.0428 128.705L41.6082 131.986C38.514 132.509 36.6602 135.719 37.7546 138.66L44.6303 157.138C45.6121 159.777 44.2227 162.705 41.5578 163.614L22.9014 169.975C19.9318 170.988 18.6176 174.453 20.1692 177.18L29.9155 194.31C31.3081 196.758 30.4058 199.872 27.9206 201.196L10.5261 210.462C7.75655 211.937 7.01481 215.57 8.9842 218.013L21.3531 233.357C23.12 235.549 22.7296 238.767 20.4899 240.473L4.80883 252.416C2.31294 254.317 2.16404 258.02 4.49924 260.115L19.1673 273.276C21.2632 275.156 21.3936 278.396 19.4556 280.438L5.89154 294.736C3.73167 297.013 4.17862 300.693 6.82063 302.387L23.4111 313.021C25.7819 314.541 26.4305 317.718 24.8453 320.045L13.7547 336.329C11.9883 338.922 13.0195 342.483 15.8984 343.731L33.9822 351.571C36.5653 352.691 37.7149 355.722 36.5243 358.273L28.1861 376.139C26.8592 378.983 28.4484 382.331 31.4901 383.101L50.5945 387.937C53.3245 388.627 54.9455 391.435 54.1788 394.145L48.8116 413.112C47.9572 416.131 50.0627 419.182 53.1887 419.455L72.8183 421.165C75.6233 421.409 77.6735 423.92 77.3516 426.718L75.0982 446.297C74.7394 449.414 77.3071 452.087 80.4362 451.854L100.091 450.393C102.899 450.184 105.325 452.333 105.456 455.146L106.375 474.829C106.521 477.963 109.484 480.189 112.535 479.458L131.699 474.865C134.437 474.209 137.176 475.941 137.757 478.695L141.825 497.99C142.473 501.06 145.755 502.783 148.649 501.571L166.831 493.956C169.428 492.868 172.411 494.138 173.426 496.765L180.533 515.149C181.664 518.075 185.18 519.249 187.842 517.589L204.568 507.16C206.958 505.671 210.105 506.447 211.528 508.876L221.489 525.885C223.074 528.593 226.733 529.188 229.095 527.122L243.931 514.146C246.051 512.292 249.282 512.553 251.076 514.723L263.636 529.911C265.636 532.33 269.343 532.33 271.342 529.911L283.901 514.724C285.696 512.554 288.928 512.293 291.047 514.147L305.875 527.121C308.237 529.187 311.896 528.593 313.482 525.885L323.441 508.885C324.864 506.455 328.011 505.679 330.4 507.169L347.127 517.598C349.79 519.258 353.305 518.084 354.437 515.158L361.543 496.774C362.558 494.147 365.541 492.877 368.138 493.965L386.32 501.58C389.214 502.792 392.497 501.07 393.144 497.999L397.212 478.705C397.793 475.95 400.533 474.218 403.27 474.874L422.434 479.467C425.485 480.198 428.448 477.972 428.594 474.838L429.513 455.146C429.644 452.334 432.07 450.184 434.878 450.393L454.533 451.854C457.662 452.087 460.23 449.414 459.871 446.297L457.618 426.717C457.296 423.92 459.346 421.409 462.151 421.165L481.782 419.455C484.908 419.182 487.013 416.132 486.16 413.113L480.798 394.144C480.032 391.435 481.653 388.628 484.383 387.937L503.497 383.101C506.539 382.331 508.128 378.982 506.801 376.139L498.463 358.273C497.273 355.722 498.422 352.691 501.005 351.571L519.09 343.73C521.968 342.482 523 338.922 521.234 336.329L510.141 320.036C508.556 317.709 509.205 314.532 511.575 313.013L528.168 302.377C530.809 300.684 531.257 297.004 529.097 294.727L512.002 276.7V276.7ZM286.389 500.916C286.384 500.911 286.377 500.908 286.369 500.908H249.019C248.751 500.908 248.483 500.887 248.218 500.844L211.72 494.914C211.455 494.871 211.193 494.807 210.939 494.722L175.832 483.005C175.577 482.92 175.33 482.814 175.092 482.69L142.407 465.541C142.169 465.416 141.941 465.272 141.726 465.11L112.097 442.846C111.882 442.685 111.68 442.506 111.494 442.312L85.8986 415.662C85.7125 415.468 85.5424 415.26 85.3899 415.039L64.3934 384.622C64.2408 384.4 64.1062 384.167 63.9911 383.925L48.1356 350.511C48.0204 350.269 47.925 350.017 47.8503 349.759L37.5512 314.209C37.4765 313.951 37.4227 313.688 37.3903 313.421L32.9325 276.738C32.9001 276.471 32.8892 276.202 32.9 275.934L34.3887 238.958C34.3995 238.689 34.432 238.422 34.4857 238.158L41.8771 201.954C41.9308 201.691 42.0058 201.432 42.1011 201.181L55.2273 166.58C55.3225 166.329 55.4379 166.086 55.5722 165.853L74.0512 133.85C74.1856 133.617 74.3384 133.395 74.5083 133.187L97.8976 104.543C98.0676 104.334 98.2541 104.14 98.4552 103.962L126.152 79.4292C126.353 79.2512 126.568 79.0897 126.795 78.9462L158.064 59.1728C158.291 59.0291 158.529 58.904 158.776 58.7986L192.774 44.3171C193.021 44.2118 193.277 44.1266 193.537 44.0624L229.469 35.2081C229.729 35.1439 229.995 35.1007 230.262 35.0791L267.113 32.1011C267.382 32.0795 267.651 32.0794 267.919 32.1011L304.779 35.0791C305.047 35.1007 305.313 35.1439 305.574 35.2083L341.477 44.0623C341.738 44.1266 341.993 44.2118 342.24 44.3171L376.248 58.8079C376.495 58.9131 376.733 59.038 376.959 59.1815L408.237 78.9549C408.464 79.0986 408.68 79.2604 408.881 79.4387L436.551 103.953C436.751 104.131 436.938 104.325 437.107 104.533L460.524 133.205C460.694 133.414 460.847 133.635 460.982 133.868L479.451 165.862C479.586 166.095 479.701 166.338 479.796 166.589L492.904 201.163C493 201.415 493.075 201.673 493.128 201.936L500.529 238.195C500.583 238.458 500.615 238.725 500.626 238.993L502.115 275.907C502.125 276.175 502.115 276.444 502.082 276.711L497.624 313.448C497.592 313.715 497.538 313.978 497.463 314.236L487.174 349.777C487.099 350.035 487.003 350.287 486.888 350.53L471.051 383.897C470.935 384.14 470.801 384.373 470.648 384.594L449.616 415.057C449.463 415.278 449.293 415.486 449.107 415.68L423.511 442.331C423.325 442.524 423.124 442.703 422.909 442.864L393.324 465.101C393.109 465.263 392.882 465.407 392.644 465.532L359.923 482.708C359.685 482.833 359.437 482.938 359.182 483.023L324.112 494.731C323.857 494.816 323.596 494.88 323.331 494.924L286.413 500.924C286.404 500.926 286.395 500.923 286.389 500.916V500.916Z"/>
</mask>
<path d="M512.002 276.7C512.012 276.71 512.029 276.71 512.039 276.701L530.514 260.125C532.85 258.029 532.701 254.326 530.204 252.425L514.517 240.482C512.276 238.776 511.886 235.558 513.653 233.365L526.022 218.021C527.991 215.578 527.25 211.946 524.481 210.471L507.093 201.205C504.608 199.881 503.706 196.767 505.099 194.32L514.845 177.189C516.397 174.462 515.083 170.997 512.113 169.984L493.457 163.623C490.792 162.714 489.403 159.785 490.385 157.147L497.26 138.677C498.354 135.736 496.502 132.526 493.408 132.003L473.97 128.715C471.194 128.246 469.353 125.578 469.899 122.816L473.718 103.476C474.326 100.398 471.982 97.5275 468.845 97.5073L449.138 97.3802C446.322 97.362 444.077 95.024 444.173 92.2103L444.843 72.507C444.95 69.3711 442.175 66.913 439.075 67.3968L419.598 70.436C416.816 70.87 414.225 68.9229 413.867 66.1304L411.365 46.5781C410.967 43.4658 407.834 41.4852 404.852 42.4602L386.123 48.5838C383.447 49.4588 380.576 47.9524 379.776 45.2529L374.171 26.3531C373.279 23.3452 369.87 21.8924 367.082 23.3325L349.569 32.381C347.068 33.6733 343.993 32.6466 342.77 30.1108L334.207 12.3553C332.844 9.52917 329.246 8.64211 326.725 10.5111L310.895 22.2511C308.634 23.9281 305.434 23.4084 303.82 21.1018L292.518 4.95168C290.719 2.38151 287.025 2.08331 284.838 4.33167L271.091 18.4598C269.128 20.4774 265.887 20.4774 263.924 18.4598L250.177 4.33167C247.989 2.08331 244.296 2.3815 242.497 4.95168L231.195 21.1018C229.58 23.4084 226.381 23.9281 224.12 22.2511L208.289 10.5111C205.769 8.64211 202.17 9.52917 200.807 12.3553L192.245 30.1108C191.022 32.6466 187.947 33.6733 185.446 32.381L167.932 23.3325C165.145 21.8924 161.735 23.3452 160.844 26.3531L155.239 45.2529C154.438 47.9524 151.567 49.4588 148.891 48.5838L130.163 42.4602C127.18 41.4852 124.047 43.4658 123.649 46.5781L121.147 66.1304C120.79 68.9229 118.199 70.87 115.417 70.436L95.9396 67.3968C92.8394 66.913 90.0649 69.3712 90.1716 72.5071L90.8418 92.2012C90.9376 95.015 88.6923 97.353 85.877 97.3711L66.1691 97.4982C63.032 97.5184 60.6883 100.389 61.2961 103.467L65.1156 122.806C65.6611 125.568 63.8192 128.236 61.0428 128.705L41.6082 131.986C38.514 132.509 36.6602 135.719 37.7546 138.66L44.6303 157.138C45.6121 159.777 44.2227 162.705 41.5578 163.614L22.9014 169.975C19.9318 170.988 18.6176 174.453 20.1692 177.18L29.9155 194.31C31.3081 196.758 30.4058 199.872 27.9206 201.196L10.5261 210.462C7.75655 211.937 7.01481 215.57 8.9842 218.013L21.3531 233.357C23.12 235.549 22.7296 238.767 20.4899 240.473L4.80883 252.416C2.31294 254.317 2.16404 258.02 4.49924 260.115L19.1673 273.276C21.2632 275.156 21.3936 278.396 19.4556 280.438L5.89154 294.736C3.73167 297.013 4.17862 300.693 6.82063 302.387L23.4111 313.021C25.7819 314.541 26.4305 317.718 24.8453 320.045L13.7547 336.329C11.9883 338.922 13.0195 342.483 15.8984 343.731L33.9822 351.571C36.5653 352.691 37.7149 355.722 36.5243 358.273L28.1861 376.139C26.8592 378.983 28.4484 382.331 31.4901 383.101L50.5945 387.937C53.3245 388.627 54.9455 391.435 54.1788 394.145L48.8116 413.112C47.9572 416.131 50.0627 419.182 53.1887 419.455L72.8183 421.165C75.6233 421.409 77.6735 423.92 77.3516 426.718L75.0982 446.297C74.7394 449.414 77.3071 452.087 80.4362 451.854L100.091 450.393C102.899 450.184 105.325 452.333 105.456 455.146L106.375 474.829C106.521 477.963 109.484 480.189 112.535 479.458L131.699 474.865C134.437 474.209 137.176 475.941 137.757 478.695L141.825 497.99C142.473 501.06 145.755 502.783 148.649 501.571L166.831 493.956C169.428 492.868 172.411 494.138 173.426 496.765L180.533 515.149C181.664 518.075 185.18 519.249 187.842 517.589L204.568 507.16C206.958 505.671 210.105 506.447 211.528 508.876L221.489 525.885C223.074 528.593 226.733 529.188 229.095 527.122L243.931 514.146C246.051 512.292 249.282 512.553 251.076 514.723L263.636 529.911C265.636 532.33 269.343 532.33 271.342 529.911L283.901 514.724C285.696 512.554 288.928 512.293 291.047 514.147L305.875 527.121C308.237 529.187 311.896 528.593 313.482 525.885L323.441 508.885C324.864 506.455 328.011 505.679 330.4 507.169L347.127 517.598C349.79 519.258 353.305 518.084 354.437 515.158L361.543 496.774C362.558 494.147 365.541 492.877 368.138 493.965L386.32 501.58C389.214 502.792 392.497 501.07 393.144 497.999L397.212 478.705C397.793 475.95 400.533 474.218 403.27 474.874L422.434 479.467C425.485 480.198 428.448 477.972 428.594 474.838L429.513 455.146C429.644 452.334 432.07 450.184 434.878 450.393L454.533 451.854C457.662 452.087 460.23 449.414 459.871 446.297L457.618 426.717C457.296 423.92 459.346 421.409 462.151 421.165L481.782 419.455C484.908 419.182 487.013 416.132 486.16 413.113L480.798 394.144C480.032 391.435 481.653 388.628 484.383 387.937L503.497 383.101C506.539 382.331 508.128 378.982 506.801 376.139L498.463 358.273C497.273 355.722 498.422 352.691 501.005 351.571L519.09 343.73C521.968 342.482 523 338.922 521.234 336.329L510.141 320.036C508.556 317.709 509.205 314.532 511.575 313.013L528.168 302.377C530.809 300.684 531.257 297.004 529.097 294.727L512.002 276.7V276.7ZM286.389 500.916C286.384 500.911 286.377 500.908 286.369 500.908H249.019C248.751 500.908 248.483 500.887 248.218 500.844L211.72 494.914C211.455 494.871 211.193 494.807 210.939 494.722L175.832 483.005C175.577 482.92 175.33 482.814 175.092 482.69L142.407 465.541C142.169 465.416 141.941 465.272 141.726 465.11L112.097 442.846C111.882 442.685 111.68 442.506 111.494 442.312L85.8986 415.662C85.7125 415.468 85.5424 415.26 85.3899 415.039L64.3934 384.622C64.2408 384.4 64.1062 384.167 63.9911 383.925L48.1356 350.511C48.0204 350.269 47.925 350.017 47.8503 349.759L37.5512 314.209C37.4765 313.951 37.4227 313.688 37.3903 313.421L32.9325 276.738C32.9001 276.471 32.8892 276.202 32.9 275.934L34.3887 238.958C34.3995 238.689 34.432 238.422 34.4857 238.158L41.8771 201.954C41.9308 201.691 42.0058 201.432 42.1011 201.181L55.2273 166.58C55.3225 166.329 55.4379 166.086 55.5722 165.853L74.0512 133.85C74.1856 133.617 74.3384 133.395 74.5083 133.187L97.8976 104.543C98.0676 104.334 98.2541 104.14 98.4552 103.962L126.152 79.4292C126.353 79.2512 126.568 79.0897 126.795 78.9462L158.064 59.1728C158.291 59.0291 158.529 58.904 158.776 58.7986L192.774 44.3171C193.021 44.2118 193.277 44.1266 193.537 44.0624L229.469 35.2081C229.729 35.1439 229.995 35.1007 230.262 35.0791L267.113 32.1011C267.382 32.0795 267.651 32.0794 267.919 32.1011L304.779 35.0791C305.047 35.1007 305.313 35.1439 305.574 35.2083L341.477 44.0623C341.738 44.1266 341.993 44.2118 342.24 44.3171L376.248 58.8079C376.495 58.9131 376.733 59.038 376.959 59.1815L408.237 78.9549C408.464 79.0986 408.68 79.2604 408.881 79.4387L436.551 103.953C436.751 104.131 436.938 104.325 437.107 104.533L460.524 133.205C460.694 133.414 460.847 133.635 460.982 133.868L479.451 165.862C479.586 166.095 479.701 166.338 479.796 166.589L492.904 201.163C493 201.415 493.075 201.673 493.128 201.936L500.529 238.195C500.583 238.458 500.615 238.725 500.626 238.993L502.115 275.907C502.125 276.175 502.115 276.444 502.082 276.711L497.624 313.448C497.592 313.715 497.538 313.978 497.463 314.236L487.174 349.777C487.099 350.035 487.003 350.287 486.888 350.53L471.051 383.897C470.935 384.14 470.801 384.373 470.648 384.594L449.616 415.057C449.463 415.278 449.293 415.486 449.107 415.68L423.511 442.331C423.325 442.524 423.124 442.703 422.909 442.864L393.324 465.101C393.109 465.263 392.882 465.407 392.644 465.532L359.923 482.708C359.685 482.833 359.437 482.938 359.182 483.023L324.112 494.731C323.857 494.816 323.596 494.88 323.331 494.924L286.413 500.924C286.404 500.926 286.395 500.923 286.389 500.916V500.916Z" fill="#F3ECD2" stroke="black" stroke-width="2" mask="url(#path-1-inside-1_271_555)"/>
<path d="M505.977 267.301C505.977 398.999 399.214 505.761 267.516 505.761C135.818 505.761 29.0563 398.999 29.0563 267.301C29.0563 135.603 135.818 28.8407 267.516 28.8407C399.214 28.8407 505.977 135.603 505.977 267.301Z" fill="#F3ECD2" stroke="black"/>
</g>
<defs>
<clipPath id="clip0_271_555">
<rect width="536" height="199" fill="white"/>
</clipPath>
</defs>
</svg>
